<svg aria-hidden="true" style="width:0;height:0;position:absolute;overflow:hidden" xmlns="http://www.w3.org/2000/svg"><defs><symbol id="icon-arrow" viewBox="0 0 512.01 512.01"><path d="M230.044 41.499h55.967v470.276h-55.967z" style="fill:#999" transform="matrix(1 -.0087 .0087 1 -2.397 2.255)"/><path d="M409.053 223.772 256.005 77.432l-153.048 146.34-38.672-40.439L256.005 0l191.72 183.333z" style="fill:#1a1718"/></symbol><symbol id="icon-search" viewBox="0 0 32 32"><path d="M23.484 20.688a12.901 12.901 0 0 0 2.514-7.684c0-7.18-5.82-13-13-13s-13 5.82-13 13 5.82 13 13 13c2.894 0 5.567-.946 7.727-2.545l-.035.025h-.002c.06.08.124.156.196.23l7.7 7.7a2 2 0 0 0 2.83-2.828l-7.7-7.7a2 2 0 0 0-.225-.196l-.005-.004zM24 13c0 6.075-4.925 11-11 11S2 19.075 2 13 6.925 2 13 2s11 4.925 11 11z"/></symbol><symbol id="icon-heart-fill" viewBox="0 0 32 32"><path d="M16 2.628C24.876-6.496 47.068 9.47 16 30-15.068 9.472 7.124-6.496 16 2.628z"/></symbol></defs></svg>