<svg aria-hidden="true" style="position: absolute; width: 0; height: 0; overflow: hidden;" version="1.1" xmlns="http://www.w3.org/2000/svg" xmlns:xlink="http://www.w3.org/1999/xlink">
<defs>

<symbol id="icon-arrow" viewBox="0 0 512.01 512.01"><path d="M230.044 41.499h55.967v470.276h-55.967z" style="fill:#999" transform="matrix(1 -.0087 .0087 1 -2.397 2.255)"/><path d="M409.053 223.772 256.005 77.432l-153.048 146.34-38.672-40.439L256.005 0l191.72 183.333z" style="fill:#1a1718"/>
</symbol>
<symbol id="icon-search" viewBox="0 0 32 32">
<path d="M23.484 20.688c1.571-2.123 2.514-4.794 2.514-7.684 0-7.18-5.82-13-13-13s-13 5.82-13 13c0 7.18 5.82 13 13 13 2.894 0 5.567-0.946 7.727-2.545l-0.035 0.025h-0.002c0.060 0.080 0.124 0.156 0.196 0.23l7.7 7.7c0.362 0.362 0.862 0.586 1.415 0.586 1.105 0 2-0.896 2-2 0-0.552-0.224-1.052-0.585-1.414l-7.7-7.7c-0.070-0.071-0.145-0.136-0.225-0.196l-0.005-0.004zM24 13c0 6.075-4.925 11-11 11s-11-4.925-11-11v0c0-6.075 4.925-11 11-11s11 4.925 11 11v0z"></path>
</symbol>
<symbol id="icon-heart-fill" viewBox="0 0 32 32">
<path d="M16 2.628c8.876-9.124 31.068 6.842 0 27.372-31.068-20.528-8.876-36.496 0-27.372z"></path>
</symbol>
</defs>
</svg>
